<svg xmlns="http://www.w3.org/2000/svg" data-name="Layer 1" width="816" height="548.78654" viewBox="0 0 816 548.78654" xmlns:xlink="http://www.w3.org/1999/xlink"><path d="M846.82973,247.21848l2.61791-20.98372a28.33616,28.33616,0,1,1,56.23635,7.016l-2.6179,20.98371a3.81065,3.81065,0,0,1-4.24829,3.30585l-48.68222-6.07353A3.81065,3.81065,0,0,1,846.82973,247.21848Z" transform="translate(-192 -175.60673)" fill="#2f2e41"/><circle cx="678.14891" cy="57.0969" r="20.77508" fill="#ffb8b8"/><path d="M842.58612,227.08356a22.44053,22.44053,0,0,1,25.01771-19.46777l4.197.52361a22.44035,22.44035,0,0,1,19.46756,25.01769l-.05236.41967-8.8691-1.1065-1.96825-8.84793-1.66169,8.39507-4.58363-.57185-.993-4.46421-.83853,4.2357-29.768-3.71381Z" transform="translate(-192 -175.60673)" fill="#2f2e41"/><path d="M768.53883,306.81217a9.56985,9.56985,0,0,0,14.30094,3.28866l18.86947,11.05367,9.514-9.82859L784.3567,296.09024a9.6217,9.6217,0,0,0-15.81787,10.72193Z" transform="translate(-192 -175.60673)" fill="#ffb8b8"/><path d="M830.38286,326.67441c-13.91846,0-38.41088-6.23076-39.76709-6.57889l-.42832-.10965,3.85482-19.51691,37.40966,7.38891,20.32328-28.61907,23.3329-2.37206-.65127.85708c-.30335.39931-30.38075,39.99325-35.06159,46.63518C838.214,326.03479,834.84006,326.67441,830.38286,326.67441Z" transform="translate(-192 -175.60673)" fill="#3f3d56"/><path d="M834.11433,399.92576l-.55693-.2659c-.11855-.05665-11.94388-5.80861-18.06887-17.03749-6.09575-11.17589,22.44018-58.58409,24.43646-61.87353l.029-15.0556,10.26535-27.7154,13.09153-7.39942-11.24007,26.22646Z" transform="translate(-192 -175.60673)" fill="#3f3d56"/><polygon points="628.999 386.136 616.487 386.135 610.535 337.875 629.001 337.876 628.999 386.136" fill="#ffb8b8"/><path d="M824.18966,573.87115l-40.34382-.00149v-.51029a15.70379,15.70379,0,0,1,15.70294-15.70269h.001l24.64063.001Z" transform="translate(-192 -175.60673)" fill="#2f2e41"/><polygon points="763.392 375.171 751.502 379.067 730.818 335.059 748.367 329.31 763.392 375.171" fill="#ffb8b8"/><path d="M962.20121,561.30994l-38.33848,12.56121-.1589-.48491a15.70379,15.70379,0,0,1,10.03258-19.81172l.00094-.00031,23.41587-7.67188Z" transform="translate(-192 -175.60673)" fill="#2f2e41"/><path d="M931.16686,542.88774l-35.668-59.54648-30.10994-63.61853-27.09519,56.1965-10.76357,72.78352-37.74751.52448.14871-.59027L847.697,319.10869l45.24128,6.75889-2.05933,29.86267,1.22646,1.74432c10.21989,14.51833,20.78677,29.52916,14.7262,45.71048l17.181,51.01471,38.03123,84.94532Z" transform="translate(-192 -175.60673)" fill="#2f2e41"/><path d="M849.76408,368.85422c-6.55558,0-14.035-7.48531-10.15478-20.26481l-.25128-.18183,9.31986-41.17653c-8.13338-11.63184,2.59-21.23153,3.59486-22.08907l5.11874-9.21364,22.58478-14.32325,11.42716,94.94569-.169.16173C882.9813,364.609,855.26317,368.85422,849.76408,368.85422Z" transform="translate(-192 -175.60673)" fill="#9063ff"/><path d="M896.01687,390.27855a11.11742,11.11742,0,0,1-2.66788-.28234c-.87833-.22021-2.30033-1.33862-4.49763-8.49317-8.73553-28.44181-19.04931-114.02035-11.55623-122.39473l.17156-.19188,12.303,2.05042c1.0227-.75475,6.38929-4.50106,11.3415-3.84957a7.51617,7.51617,0,0,1,5.143,3.04l.08475.111,3.91946,55.76019,14.35888,65.61892-.34425.15625C923.43758,382.18378,905.50783,390.27855,896.01687,390.27855Z" transform="translate(-192 -175.60673)" fill="#3f3d56"/><path d="M887.74285,368.48458a9.56982,9.56982,0,0,0,9.04074-11.55842l18.01019-12.40458L909.925,331.73827l-25.18784,17.8749a9.62169,9.62169,0,0,0,3.00574,18.87141Z" transform="translate(-192 -175.60673)" fill="#ffb8b8"/><path d="M908.851,354.46107l-16.04243-11.76433,22.55028-30.74991-17.30522-30.53837,7.7423-22.13887.50027.95348c.233.44407,23.34318,44.46917,27.37457,51.52457,4.19427,7.33912-23.3635,40.94536-24.53857,42.3717Z" transform="translate(-192 -175.60673)" fill="#3f3d56"/><path d="M751.33869,420.02424l-294.77327,9.99145a27.52578,27.52578,0,0,1-28.41027-26.54747l-4.85458-143.22314A27.52574,27.52574,0,0,1,449.848,231.83481l294.77323-9.99142a27.52576,27.52576,0,0,1,28.41026,26.54746L777.88607,391.614A27.52579,27.52579,0,0,1,751.33869,420.02424Z" transform="translate(-192 -175.60673)" fill="#fff"/><path d="M777.88615,391.614l.0257.75778a26.25755,26.25755,0,0,1-25.35713,27.12781L456.30761,429.54088a26.25574,26.25574,0,0,1-27.12731-25.3488l-.02567-.75777Z" transform="translate(-192 -175.60673)" fill="#f2f2f2"/><path d="M486.8813,276.43024c-21.2293,6.01327-41.00614-9.806-44.87965-24.97217l1.48147-.31695C461.39237,246.54085,481.97234,258.7565,486.8813,276.43024Z" transform="translate(-192 -175.60673)" fill="#9063ff"/><path d="M696.77054,378.81594c-4.78248.16212-8.63389-1.13119-11.44866-3.84452-6.36156-6.1328-6.3908-18.36835-6.41423-28.2-.007-2.86014-.01345-5.56195-.17588-7.81967l-.00177-.03413a16.77707,16.77707,0,0,1,16.1107-17.25L734.49,320.32376c4.77639-.1619,8.62388,1.12953,11.43671,3.83924,6.36114,6.12754,6.39457,18.36,6.42162,28.18905.0078,2.86622.01511,5.5737.1795,7.83543a16.7875,16.7875,0,0,1-16.11745,17.28477Zm-16.37566-39.96649c.16545,2.31176.172,5.03512.17885,7.91809.02278,9.517.05122,21.36135,5.9046,27.00416,2.51239,2.42188,5.86065,3.52715,10.23555,3.37892l39.63744-1.3435a15.11055,15.11055,0,0,0,14.51251-15.53344c-.1668-2.28521-.1742-5.0208-.18208-7.9172-.02615-9.51444-.05855-21.35582-5.91136-26.99339-2.51023-2.41829-5.85518-3.522-10.224-3.37394L694.89944,323.333A15.10664,15.10664,0,0,0,680.39488,338.84945Z" transform="translate(-192 -175.60673)" fill="#3f3d56"/><path d="M478.17355,278.25952a37.17568,37.17568,0,0,1-19.82478-5.08419c-8.79033-5.05769-15.58106-13.405-17.722-21.7833l-.21459-.83978,2.31239-.49522c18.17653-4.66264,39.33177,7.66031,44.39159,25.86942l.22184.79844-.7973.22607A34.97981,34.97981,0,0,1,478.17355,278.25952Zm-35.70233-26.444c2.26073,7.67572,8.5889,15.24333,16.70861,19.91544a34.73328,34.73328,0,0,0,26.09479,3.83615c-5.22252-16.9474-25.07015-28.29134-42.15148-23.8917Z" transform="translate(-192 -175.60673)" fill="#3f3d56"/><path d="M458.28005,373.67157a13.82949,13.82949,0,0,1-12.706-6.46241,17.29839,17.29839,0,0,1-.57987-16.9517,13.87828,13.87828,0,0,1,12.53472-7.32406l52.82914-1.79068a13.90288,13.90288,0,0,1,12.98823,6.46787,17.29807,17.29807,0,0,1,.573,16.94952c-2.48742,4.6075-6.93941,7.17428-12.53227,7.30928l-52.83011,1.7908Q458.41805,373.66669,458.28005,373.67157Zm-.95428-29.066a12.24775,12.24775,0,0,0-10.86482,6.44273,15.58376,15.58376,0,0,0,.52263,15.27171,12.25906,12.25906,0,0,0,11.50431,5.67518l52.85517-1.79156a12.27838,12.27838,0,0,0,11.10983-6.43519,15.58217,15.58217,0,0,0-.51664-15.26989,12.3121,12.3121,0,0,0-11.50993-5.69088l-52.85844,1.79168c-.08074.00154-.16188.00345-.24209.00615Z" transform="translate(-192 -175.60673)" fill="#3f3d56"/><path d="M709.06217,341.01l-16.65388.5645a4.16587,4.16587,0,0,1-.28228-8.32695l16.65387-.56446a4.16587,4.16587,0,0,1,.28228,8.327Z" transform="translate(-192 -175.60673)" fill="#9063ff"/><path d="M709.51374,354.33315l-16.65388.5645a4.16586,4.16586,0,1,1-.28222-8.32693l16.65388-.5645a4.16586,4.16586,0,1,1,.28222,8.32693Z" transform="translate(-192 -175.60673)" fill="#9063ff"/><path d="M709.96531,367.65623l-16.65388.5645a4.16584,4.16584,0,1,1-.28222-8.3269l16.65387-.5645a4.16584,4.16584,0,1,1,.28223,8.3269Z" transform="translate(-192 -175.60673)" fill="#9063ff"/><path d="M738.20632,340.02217l-16.65386.56447a4.16586,4.16586,0,1,1-.28222-8.32693h0l16.65387-.56446a4.16585,4.16585,0,1,1,.28221,8.32692Z" transform="translate(-192 -175.60673)" fill="#9063ff"/><path d="M738.658,353.34528l-16.65388.56449a4.16585,4.16585,0,1,1-.28222-8.32692h0l16.65387-.56447a4.16586,4.16586,0,1,1,.28222,8.32693h0Z" transform="translate(-192 -175.60673)" fill="#9063ff"/><path d="M739.10954,366.66836l-16.65387.56449a4.16584,4.16584,0,1,1-.28223-8.32689l16.65388-.5645a4.16584,4.16584,0,1,1,.28222,8.3269Z" transform="translate(-192 -175.60673)" fill="#9063ff"/><rect x="425.28641" y="285.47855" width="348.93289" height="1.66635" transform="translate(-201.35499 -155.12487) rotate(-1.94135)" fill="#3f3d56"/><path d="M751.33869,420.02424l-294.77327,9.99145a27.52578,27.52578,0,0,1-28.41027-26.54747l-4.85458-143.22314A27.52574,27.52574,0,0,1,449.848,231.83481l294.77323-9.99142a27.52576,27.52576,0,0,1,28.41026,26.54746L777.88607,391.614A27.52579,27.52579,0,0,1,751.33869,420.02424ZM449.90452,233.50011A25.85768,25.85768,0,0,0,424.966,260.18855l4.85457,143.22318a25.85769,25.85769,0,0,0,26.68845,24.9385l294.77325-9.99138a25.8576,25.8576,0,0,0,24.9385-26.68845l-4.85455-143.22313a25.85771,25.85771,0,0,0-26.68844-24.93854Z" transform="translate(-192 -175.60673)" fill="#3f3d56"/><path d="M328.99442,384.58773a10.03189,10.03189,0,0,0-12.24785-9.30676l-13.26633-18.69591-13.32774,5.29087L309.258,388.01506a10.08621,10.08621,0,0,0,19.73647-3.42733Z" transform="translate(-192 -175.60673)" fill="#a0616a"/><path d="M303.13883,383.20222l-40.14179-52.076,15.04078-47.27067c1.10219-11.88449,8.539-15.20306,8.85548-15.33866l.48268-.20708,13.08826,34.903-9.60985,25.62628,23.58711,39.67012Z" transform="translate(-192 -175.60673)" fill="#3f3d56"/><path d="M442.54465,222.66949a10.03185,10.03185,0,0,0-8.33194,12.93076l-17.61425,14.67212,6.30549,12.87877,24.58372-21.06924a10.08622,10.08622,0,0,0-4.943-19.41241Z" transform="translate(-192 -175.60673)" fill="#a0616a"/><path d="M443.16234,248.55482l-48.81646,44.048-48.29206-11.341c-11.93413-.18-15.81776-7.338-15.97742-7.643l-.24378-.46523,33.78659-15.74766,26.29257,7.59976,37.7277-26.58366Z" transform="translate(-192 -175.60673)" fill="#3f3d56"/><polygon points="166.605 386.085 179.721 386.085 185.96 335.494 166.602 335.495 166.605 386.085" fill="#a0616a"/><path d="M355.79425,557.94365h41.22168a0,0,0,0,1,0,0v15.92656a0,0,0,0,1,0,0H369.91339a14.11914,14.11914,0,0,1-14.11914-14.11914v-1.80742A0,0,0,0,1,355.79425,557.94365Z" transform="translate(560.83601 956.18995) rotate(179.99738)" fill="#2f2e41"/><polygon points="114.183 386.085 127.299 386.085 133.538 335.494 114.18 335.495 114.183 386.085" fill="#a0616a"/><path d="M303.37214,557.94365h41.22168a0,0,0,0,1,0,0v15.92656a0,0,0,0,1,0,0H317.49128a14.11914,14.11914,0,0,1-14.11914-14.11914v-1.80742A0,0,0,0,1,303.37214,557.94365Z" transform="translate(455.99179 956.19235) rotate(179.99738)" fill="#2f2e41"/><polygon points="109.518 201.425 110.588 276.314 111.657 374.739 135.194 372.599 146.962 236.73 161.94 372.599 186.239 372.599 188.686 235.66 180.127 205.704 109.518 201.425" fill="#2f2e41"/><path d="M347.58438,387.08816c-25.60915.002-49.18206-11.58881-49.50026-11.74791l-.26435-.13217-2.14907-51.57517c-.62318-1.82254-12.89465-37.7854-14.973-49.21608-2.10574-11.581,28.413-21.74474,32.119-22.93334l.841-9.31638,34.2-3.68523,4.3346,11.92071,12.26951,4.60067a6.06885,6.06885,0,0,1,3.76136,7.12962L361.404,289.86417l16.65477,91.74852-3.5856.15518A65.11242,65.11242,0,0,1,347.58438,387.08816Z" transform="translate(-192 -175.60673)" fill="#3f3d56"/><circle cx="140.098" cy="32.35166" r="24.62419" fill="#a0616a"/><path d="M312.15251,231.79531c4.69278,4.99882,13.40791,2.31533,14.01939-4.51376a8.24947,8.24947,0,0,0-.01039-1.59332c-.31571-3.025-2.06332-5.77133-1.6447-8.96529a4.70141,4.70141,0,0,1,.86042-2.20088c3.73954-5.00759,12.51786,2.23975,16.04712-2.29346,2.16406-2.77966-.37977-7.1561,1.2809-10.26284,2.19181-4.1004,8.68386-2.07766,12.75506-4.32324,4.52971-2.49848,4.25878-9.44835,1.277-13.67561-3.63639-5.15533-10.01214-7.90621-16.30845-8.30266s-12.54924,1.30558-18.42742,3.59637c-6.67879,2.6028-13.30178,6.19991-17.41181,12.07259-4.99824,7.14181-5.47924,16.7433-2.97953,25.0943C303.13073,221.50751,308.32035,227.71324,312.15251,231.79531Z" transform="translate(-192 -175.60673)" fill="#2f2e41"/><path d="M1007,575.20813H193a1,1,0,0,1,0-2h814a1,1,0,0,1,0,2Z" transform="translate(-192 -175.60673)" fill="#cacaca"/><polygon points="453.926 537.335 465.74 537.334 471.36 491.766 453.924 491.767 453.926 537.335" fill="#ffb8b8"/><path d="M642.91266,709.08439l23.26586-.00094h.00094a14.82762,14.82762,0,0,1,14.82683,14.8266v.48181l-38.09293.00141Z" transform="translate(-192 -175.60673)" fill="#2f2e41"/><polygon points="344.073 537.335 355.887 537.334 361.507 491.766 344.071 491.767 344.073 537.335" fill="#ffb8b8"/><path d="M533.05912,709.08439l23.26587-.00094h.00094a14.82762,14.82762,0,0,1,14.82683,14.8266v.48181l-38.09293.00141Z" transform="translate(-192 -175.60673)" fill="#2f2e41"/><path d="M650.63491,481.69506s9.91629,26.91558,8.49967,38.24844,9.91623,90.663,8.49967,97.74607,1.41662,42.49831,0,48.16473,3.97588,12.43468,1.1427,18.10111-6.80913,17.31414-6.80913,17.31414l-18.41591-1.41662-2.83324-15.58272s-8.49967-1.41662-7.083-9.91629-7.08305-65.164-7.08305-65.164l-24.08233-79.33011-33.99863,72.24706s-1.41662,50.99792-5.66643,56.66434,4.24981,21.24915,0,26.91558-8.49967,15.58272-8.49967,15.58272H533.05636V689.93664s-12.74948-7.083,0-28.3322l8.615-127.61018,8.49967-58.081Z" transform="translate(-192 -175.60673)" fill="#2f2e41"/><circle cx="405.82612" cy="101.50448" r="26.45879" fill="#ffb8b8"/><path d="M620.34206,275.286q-2.80045,7.15517-5.60107,14.3103c-2.29524,5.86416-4.924,12.13811-10.30411,15.4108-6.64262,4.04069-15.51334,2.07044-21.93927-2.30665A34.25953,34.25953,0,0,1,597.91806,240.345l.26591,4.78966,5.87744-4.92651a5.71394,5.71394,0,0,0,8.88211,1.25612c-1.54392,3.20029.238,7.10348,2.81117,9.55507,3.16139,3.01165,12.20332,6.63115,11.82811,12.015C627.33241,266.62717,621.7994,271.56271,620.34206,275.286Z" transform="translate(-192 -175.60673)" fill="#2f2e41"/><path d="M524.9941,520.83405a11.20328,11.20328,0,0,1,4.80074-16.49444l-.52868-25.59593,15.47622-4.115.23893,36.1569a11.264,11.264,0,0,1-19.98721,10.04848Z" transform="translate(-192 -175.60673)" fill="#ffb8b8"/><path d="M578.17147,319.92274s20.50343-10.25171,39.86779-3.41724,29.61613,14.80806,29.61613,14.80806l-12.52986,66.06665,17.08616,88.84826s-87.70922-6.8345-95.68273,0-7.97357-7.97357-7.97357-7.97357l6.8345-84.29194L542.86,340.42621Z" transform="translate(-192 -175.60673)" fill="#3f3d56"/><path d="M664.70926,522.34973a11.20327,11.20327,0,0,1-.02331-17.17885l-7.69371-24.418,13.69842-8.29458,10.38069,34.63553a11.264,11.264,0,0,1-16.36209,15.2559Z" transform="translate(-192 -175.60673)" fill="#ffb8b8"/><path d="M639.68182,331.31356h7.97357s12.5299,7.97357,12.5299,19.36436,18.22525,144.66325,18.22525,144.66325l-19.36436,3.41722L641.96,405.35378,629.43005,380.294Z" transform="translate(-192 -175.60673)" fill="#3f3d56"/><path d="M564.50247,340.42621H542.86s-6.8345,6.83446-10.25172,22.7816-6.8345,78.59655-6.8345,78.59655l2.27815,56.954h17.08621l2.27815-74.04022,11.39079-47.84136Z" transform="translate(-192 -175.60673)" fill="#3f3d56"/></svg>