<svg width="800" height="800" viewBox="0 0 800 800" fill="none" xmlns="http://www.w3.org/2000/svg">
<path d="M675 325H650V225C650 183.75 616.25 150 575 150H545.5H254.5H225C183.75 150 150 183.75 150 225V575C150 616.25 183.75 650 225 650H254.5H545.5H575C616.25 650 650 616.25 650 575V475H675C688.817 475 700 463.805 700 450V350C700 336.195 688.817 325 675 325ZM425 500C399.5 500 375.75 492.25 356 479.5L292.75 542.75C287.75 547.5 281.5 550 275 550C268.5 550 262.25 547.5 257.25 542.75C247.5 533 247.5 517 257.25 507.25L320.5 444C307.75 424.25 300 400.5 300 375C300 306 356 250 425 250C494 250 550 306 550 375C550 444 494 500 425 500Z" fill="#2F2E41"/>
<path d="M484.5 100H535.5L524.5 45C522.25 33.5 512 25 500 25H300C288 25 277.75 33.5 275.5 45L264.5 100H315.5H484.5Z" fill="#9063FF"/>
<path d="M315.5 700H264.5L275.5 755C277.75 766.5 288 775 300 775H500C512 775 522.25 766.5 524.5 755L535.5 700H484.5H315.5Z" fill="#9063FF"/>
<path d="M425 300C383.75 300 350 333.75 350 375C350 395.5 358.5 414.5 372 428C385.5 441.5 404.5 450 425 450C466.25 450 500 416.25 500 375C500 333.75 466.25 300 425 300Z" fill="#2F2E41"/>
</svg>
